inDegrees=yes
name=ik_lifting_orientations
DataType=double
version=3
OpenSimVersion=4.5-2024-01-10-34fd6af
endheader
time	pelvis_tilt	pelvis_list	pelvis_rotation	pelvis_tx	pelvis_ty	pelvis_tz	hip_flexion_r	hip_adduction_r	hip_rotation_r	knee_angle_r	knee_angle_r_beta	ankle_angle_r	subtalar_angle_r	mtp_angle_r	hip_flexion_l	hip_adduction_l	hip_rotation_l	knee_angle_l	knee_angle_l_beta	ankle_angle_l	subtalar_angle_l	mtp_angle_l	lumbar_extension	lumbar_bending	lumbar_rotation	arm_flex_r	arm_add_r	arm_rot_r	elbow_flex_r	pro_sup_r	wrist_flex_r	wrist_dev_r	arm_flex_l	arm_add_l	arm_rot_l	elbow_flex_l	pro_sup_l	wrist_flex_l	wrist_dev_l
1.27	-12.20932272461799	-27.28816059011128	-74.14153067902835	0	0.9399999998679526	0	45.61438638761891	-10.39875743848052	0	61.13630638229251	1.067029838879027	-5.028848302302641	0	0	45.61438638761891	-10.39875743848052	0	61.13630638229251	1.067029838879027	-5.028848302302641	0	0	-80.77674971869794	28.80776463527996	12.1956610874241	69.43981659842615	-18.18852486630916	4.811647217473054	7.403666087979991	0.5883945471603373	0	0	0	-10.33990970109525	0	89.45352941732551	0.5883945471603373	0	0
1.28	-12.2140887274519	-27.28953814957984	-74.14423169456026	0	0.9399999998679526	0	45.61086420056149	-10.39317650324086	0	61.12988047539734	1.06691768564628	-5.02836260080243	0	0	45.61086420056149	-10.39317650324086	0	61.12988047539734	1.06691768564628	-5.02836260080243	0	0	-79.09991578384792	29.12137235432625	11.71870382312701	67.65640249703736	-18.22607192923629	3.339230296124451	8.165702965207936	0.5858184420144403	0	0	0	-10.35608658942379	0	89.45592121393	0.5858184420144403	0	0
1.29	-11.61884311083709	-27.07593444055257	-74.84762545635965	0	0.9399999998679526	0	45.60505737010096	-10.38429962710201	0	61.11917171386857	1.066730782498792	-5.027598778990988	0	0	45.60505737010096	-10.38429962710201	0	61.11917171386857	1.066730782498792	-5.027598778990988	0	0	-77.7692638264631	27.97198089014159	10.20926541979797	66.7879984026755	-18.26183782651442	3.497100074026896	9.316725036473875	0.5815435019997465	0	0	0	-10.38305357403065	0	89.45989030202587	0.5815435019997465	0	0
1.3	-11.67791021487301	-26.09869299019851	-74.81062921931826	0	0.9399999998679526	0	45.60474147426835	-10.38359623505142	0	61.1187143616274	1.066722800196342	-5.027532854501144	0	0	45.60474147426835	-10.38359623505142	0	61.1187143616274	1.066722800196342	-5.027532854501144	0	0	-75.65505721660689	27.8754377113336	8.895723044220007	65.65268763378786	-17.33608718815353	2.160711649766453	10.05436855632399	0.5813324676068805	0	0	0	-10.38428734718342	0	89.46008623751804	0.5813324676068805	0	0
1.31	-10.08574476665677	-24.83653587230396	-74.47404619950932	0	0.9399999998679526	0	45.5995425483341	-10.37561935103091	0	61.10916335824965	1.066556103740532	-5.026845464033413	0	0	45.5995425483341	-10.37561935103091	0	61.10916335824965	1.066556103740532	-5.026845464033413	0	0	-71.7605915981959	27.68461073437	6.370914161329805	64.66269642682303	-17.31456901627575	1.5758053115135	11.02733200454712	0.577506807710339	0	0	0	-10.4084133840939	0	89.46363818935725	0.577506807710339	0	0
1.32	-10.31989696212034	-24.27452960426059	-74.38520004728599	0	0.9399999998679526	0	45.59568918046888	-10.36976005283208	0	61.10211360884409	1.066433062401964	-5.026342566341531	0	0	45.59568918046888	-10.36976005283208	0	61.10211360884409	1.066433062401964	-5.026342566341531	0	0	-70.11382567831158	27.69718065374061	5.303631601674555	63.59834339123769	-15.85501624307976	0.2131484530585367	13.02904989540974	0.5746688376702606	0	0	0	-10.42631796602716	0	89.46627311595209	0.5746688376702606	0	0
1.33	-9.340547317959743	-23.21349292861733	-73.3620391648594	0	0.9399999998679526	0	45.58906329066215	-10.35989629860672	0	61.08992197452623	1.066220278241918	-5.025501514071018	0	0	45.58906329066215	-10.35989629860672	0	61.08992197452623	1.066220278241918	-5.025501514071018	0	0	-65.58095352983926	27.21943107120877	2.405335435318294	60.58559810218992	-15.03315647850444	-0.5658273035610183	14.31360075277363	0.569769582563344	0	0	0	-10.45731258787819	0	89.47082185265927	0.569769582563344	0	0
1.34	-8.730900928195393	-23.00897199278054	-74.08199831687266	0	0.9399999998679526	0	45.58623144458537	-10.35559652835544	0	61.0847906534996	1.066130719795027	-5.025133063313822	0	0	45.58623144458537	-10.35559652835544	0	61.0847906534996	1.066130719795027	-5.025133063313822	0	0	-63.55794888681496	27.09404085946182	1.353451117890171	60.05493683779221	-14.6665898089248	1.153151335682921	13.36865309728335	0.5676849497701518	0	0	0	-10.47045750545153	0	89.4727573397347	0.5676849497701518	0	0
1.35	-7.807033402742607	-21.93570293355265	-73.1037901016952	0	0.9399999998679526	0	45.57794088233427	-10.34360068125319	0	61.0694779233393	1.06586346223626	-5.024119580397344	0	0	45.57794088233427	-10.34360068125319	0	61.0694779233393	1.06586346223626	-5.024119580397344	0	0	-59.07397823683692	24.86800902428781	-0.7387525584744091	56.43357642916574	-12.90323147920124	-0.798951203902951	15.28598104843751	0.5615236271894762	0	0	0	-10.50957248512969	0	89.47847784948181	0.5615236271894762	0	0
1.36	-8.03143495585447	-21.34808295657501	-73.0230207052056	0	0.9399999998679526	0	45.57403819557845	-10.33799981875536	0	61.06231350215371	1.065738419497572	-5.023648069071354	0	0	45.57403819557845	-10.33799981875536	0	61.06231350215371	1.065738419497572	-5.023648069071354	0	0	-55.51460981510534	24.11759168821683	-1.97697149781444	53.43879009659278	-11.8417111010997	-1.024148287912615	17.01632525239317	0.5586208638114236	0	0	0	-10.52800791880213	0	89.48117293419878	0.5586208638114236	0	0
1.37	-6.498842231960571	-20.08518444472643	-72.78778465848116	0	0.9399999998679526	0	45.57061330652426	-10.33305004279047	0	61.05607295330005	1.065629501372944	-5.023230756518561	0	0	45.57061330652426	-10.33305004279047	0	61.05607295330005	1.065629501372944	-5.023230756518561	0	0	-52.86692336353382	23.32405110086054	-4.84755864777051	53.75599720399885	-10.11671641171121	0.3032876815169197	16.73934108632519	0.5560779694489314	0	0	0	-10.54413609655797	0	89.4835338967133	0.5560779694489314	0	0
1.38	-6.628319617194843	-19.12814720647968	-72.8132417639702	0	0.9399999998679526	0	45.56668387742435	-10.32747042722348	0	61.04888802351611	1.065504100691689	-5.022763042871889	0	0	45.56668387742435	-10.32747042722348	0	61.04888802351611	1.065504100691689	-5.022763042871889	0	0	-49.9268588423427	22.59049138672547	-5.160650745818442	51.61373493223422	-9.664637349819925	0.08335071520431259	18.45421276347038	0.5531514010034208	0	0	0	-10.56273716635572	0	89.48625108341155	0.5531514010034208	0	0
1.39	-6.209924444629235	-18.35940129722215	-73.50655175302268	0	0.9399999998679526	0	45.56098899745093	-10.31970266346685	0	61.03834055074933	1.065320012564145	-5.022119963286701	0	0	45.56098899745093	-10.31970266346685	0	61.03834055074933	1.065320012564145	-5.022119963286701	0	0	-48.48850777520138	21.14943978598926	-5.925247332069609	50.57473594610017	-8.470386804110799	0.1260179312211253	20.49194545070209	0.5488780134070009	0	0	0	-10.59004146661583	0	89.49021873136407	0.5488780134070009	0	0
1.4	-5.351905757408638	-17.26588652140765	-72.57369530589844	0	0.9399999998679526	0	45.55822213739796	-10.31581244142946	0	61.03330973565672	1.06523220827672	-5.021795139813041	0	0	45.55822213739796	-10.31581244142946	0	61.03330973565672	1.06523220827672	-5.021795139813041	0	0	-45.29575887001764	20.22884612630212	-7.368941173421432	49.57384930567058	-7.964581363753	0.2748204490030028	20.56276875172103	0.546814703365192	0	0	0	-10.60316527062952	0	89.49213442163617	0.546814703365192	0	0
